<svg id="Layer_1" data-name="Layer 1" xmlns="http://www.w3.org/2000/svg" viewBox="0 0 706.15 710.71"><defs><style>.cls-1{fill:#3f3d56;}.cls-2{fill:#fff;}.cls-3{fill:#e6e6e6;}.cls-4{fill:#ffb6b6;}.cls-5{fill:#2f2e41;}.cls-6{fill:#f5842a;}.cls-7{fill:#ffb9b9;}.cls-8{fill:#f2f2f2;}</style></defs><path id="be762e0f-b118-45b0-834c-015dca31fdfd-2657" class="cls-1" d="M444,168.89h-3.9v-107A61.91,61.91,0,0,0,378.17,0H151.52A61.91,61.91,0,0,0,89.61,61.91V648.8a61.91,61.91,0,0,0,61.91,61.91H378.17a61.91,61.91,0,0,0,61.91-61.91V245H444Z" transform="translate(-89.61 0)"/><path id="bd19cda7-6ee4-487f-8299-09f5b9520cce-2658" class="cls-2" d="M427.46,57.77V652.94a47,47,0,0,1-46.94,46.95H149.22a47,47,0,0,1-47-46.95V57.77a47,47,0,0,1,47-46.95h28.05a22.34,22.34,0,0,0,20.66,30.74H329.8a22.32,22.32,0,0,0,20.65-30.74h30.06a47,47,0,0,1,46.95,46.94Z" transform="translate(-89.61 0)"/><path class="cls-3" d="M373.76,572.21H160.15a29,29,0,0,1-29-29V242.73c0-73,59.35-132.32,132.32-132.32H373.77a29,29,0,0,1,29,29V543.23A29,29,0,0,1,373.76,572.21Z" transform="translate(-89.61 0)"/><circle id="be454a6a-b415-4179-b5e8-57164f143cba" class="cls-3" cx="57.75" cy="629.17" r="15.38"/><circle id="be5a0c73-855d-427d-a69e-6f1eaa4c04a0" class="cls-3" cx="297.26" cy="629.17" r="15.38"/><polygon class="cls-4" points="299.34 571.62 289.81 582.01 245.2 550.18 259.27 534.85 299.34 571.62"/><path class="cls-5" d="M401.45,578.21l-30.74,33.5-.42-.39a17.69,17.69,0,0,1-1.08-25h0l1-10.38,15.12-7.16,2.69-2.92Z" transform="translate(-89.61 0)"/><polygon class="cls-4" points="305.58 687.56 291.48 687.56 284.77 633.17 305.58 633.17 305.58 687.56"/><path class="cls-5" d="M398.78,701.23H353.31v-.58A17.7,17.7,0,0,1,371,683h0l8.3-6.3,15.5,6.31h4Z" transform="translate(-89.61 0)"/><path id="a30b4662-e5c2-40ab-b3a2-3f3e92442cbc-2659" class="cls-5" d="M327.09,413S241,496.17,295.41,521.91h16.83s5.06-18,16.63-33.12c1.59-2.08,7.55-1.66,9.21-3.69,10.1-12.38,21.05-23,28.61-22.59l4.95,57.42-2.44,16.83a88.33,88.33,0,0,0,1.19,31.84h0l-1.72,67.17,30.2,0s1.22-15.74,2.24-35.44c.28-5.27,2.55-9,2.76-14.56.53-13.46-1.2-29.13-1.53-40.12l22.77-120.79Z" transform="translate(-89.61 0)"/><path id="bce5c948-7db7-43f8-8cd2-61a9f17c0c07-2660" class="cls-6" d="M366.87,236.79l-14,18.79-33.66,19.8L339,326.86l.75,38.31-1.85,4.62,2.09,7.57s-1,8.85-6.09,15.43c-8.95,11.5-22.62,24-8.76,27.14,21.78,4.95,99,15.84,103,6.93,1.37-3.08,1.2-16.11.4-31.85-.16-2.94-3.41-6.14-3.6-9.22-.14-2.31,2.79-4.49,2.63-6.84-1.77-26.14-4.38-53.08-4.38-53.08l7.75-72.08-31-8-3.48-8.87Z" transform="translate(-89.61 0)"/><path id="aa56653d-a1eb-49b2-bba0-f0dc0c583c83-2661" class="cls-5" d="M291.27,517l4.6,5.82s42.35,29.62,43.8,32.39l6.69,6.34,16.2-17.31-8.42-10.56a66.18,66.18,0,0,0-25.36-19.41h0l-12.91-11.45Z" transform="translate(-89.61 0)"/><path class="cls-7" d="M318.18,433.82l7.71-74.63,2-30.72-21.58-3.91s-3.23,21.12-6.06,33.51c-2.79,12.23,3.72,74.12,3.89,75.75a10.5,10.5,0,1,0,14.83.83C318.74,434.36,318.46,434.08,318.18,433.82Z" transform="translate(-89.61 0)"/><path class="cls-6" d="M290.29,371.72l37.26,9.46-.26-10.46,2.83-3,5.65-29.59,8.1-17.34-2.1-59.29-20.59,10.92,0,0a55.56,55.56,0,0,0-8.92,13.22c-7.77,15.78-15.22,50.53-19.12,70.72a2.3,2.3,0,0,1-.75,1.07,11.41,11.41,0,0,0-2.07,14.27Z" transform="translate(-89.61 0)"/><path class="cls-7" d="M511.55,390.78S466.19,343,465.77,342.06c-3.17-24.06-12.28-34.68-13.65-33.52l-23.52,8.14s7,22.16,11.73,35.32c4.53,12.57,56.7,43.29,57.57,44.8a11.19,11.19,0,1,0,14.8-5.57,11.42,11.42,0,0,0-1.15-.45Z" transform="translate(-89.61 0)"/><path class="cls-6" d="M409.61,255.43s23.09-11.31,32,10.91c4.91,12.55,17.47,43,23.73,61.75a1,1,0,0,0,.17.33,15.27,15.27,0,0,1,2.59,8.41,2.81,2.81,0,0,0,.07.65s-25.37,4.94-32.92,18.24l-3-3.24-.54-2.28-21.89-58.41Z" transform="translate(-89.61 0)"/><path class="cls-3" d="M786.67,346.14H516.35a9.09,9.09,0,0,1-9.09-9.08V297.47a9.1,9.1,0,0,1,9.09-9.09H786.67a9.1,9.1,0,0,1,9.09,9.09v39.59A9.09,9.09,0,0,1,786.67,346.14Z" transform="translate(-89.61 0)"/><path class="cls-2" d="M760.41,340H522.48a9.09,9.09,0,0,1-9.09-9.08V303.6a9.1,9.1,0,0,1,9.09-9.09H780.54a9.1,9.1,0,0,1,9.09,9.09v7.19A29.25,29.25,0,0,1,760.41,340Z" transform="translate(-89.61 0)"/><path class="cls-6" d="M678.33,314.45H569.69a2.35,2.35,0,1,1,0-4.69H678.33a2.35,2.35,0,1,1,0,4.69Z" transform="translate(-89.61 0)"/><path class="cls-3" d="M733.33,324H569.69a2.35,2.35,0,1,1,0-4.69H733.33a2.35,2.35,0,1,1,0,4.69Z" transform="translate(-89.61 0)"/><path class="cls-3" d="M786.67,430.14H516.35a9.09,9.09,0,0,1-9.09-9.08V381.47a9.1,9.1,0,0,1,9.09-9.09H786.67a9.1,9.1,0,0,1,9.09,9.09v39.59A9.09,9.09,0,0,1,786.67,430.14Z" transform="translate(-89.61 0)"/><path class="cls-2" d="M760.41,424H522.48a9.09,9.09,0,0,1-9.09-9.08V387.6a9.1,9.1,0,0,1,9.09-9.09H780.54a9.1,9.1,0,0,1,9.09,9.09v7.19A29.25,29.25,0,0,1,760.41,424Z" transform="translate(-89.61 0)"/><path class="cls-6" d="M678.33,398.45H569.69a2.35,2.35,0,1,1,0-4.69H678.33a2.35,2.35,0,1,1,0,4.69Z" transform="translate(-89.61 0)"/><path class="cls-3" d="M733.33,408H569.69a2.35,2.35,0,1,1,0-4.69H733.33a2.35,2.35,0,1,1,0,4.69Z" transform="translate(-89.61 0)"/><path class="cls-3" d="M786.67,514.14H516.35a9.09,9.09,0,0,1-9.09-9.08V465.47a9.1,9.1,0,0,1,9.09-9.09H786.67a9.1,9.1,0,0,1,9.09,9.09v39.59A9.09,9.09,0,0,1,786.67,514.14Z" transform="translate(-89.61 0)"/><path class="cls-2" d="M760.41,508H522.48a9.09,9.09,0,0,1-9.09-9.08V471.6a9.1,9.1,0,0,1,9.09-9.09H780.54a9.1,9.1,0,0,1,9.09,9.09v7.19A29.25,29.25,0,0,1,760.41,508Z" transform="translate(-89.61 0)"/><path class="cls-6" d="M678.33,482.45H569.69a2.35,2.35,0,0,1,0-4.69H678.33a2.35,2.35,0,0,1,0,4.69Z" transform="translate(-89.61 0)"/><path class="cls-3" d="M733.33,492H569.69a2.35,2.35,0,0,1,0-4.69H733.33a2.35,2.35,0,0,1,0,4.69Z" transform="translate(-89.61 0)"/><circle id="f8b50a69-a369-42b8-943f-f14ba4f1f80f" class="cls-7" cx="292.07" cy="202.49" r="28.27"/><path class="cls-5" d="M360.89,220.67a3.08,3.08,0,0,1-1-.16,6.53,6.53,0,0,1-3-2.68c-4.87-7-7.22-16.34-7-27.74.1-4.83.64-11,4-15.92,2.85-4.14,8.6-7.42,14-5.77a5.77,5.77,0,0,1,2.89-5.35c2-1.24,4.47-1.47,6.62-1.67,5.45-.51,11.07-1,16.58,0,6.18,1.18,11.23,4.36,13.86,8.74l.06.14.53,2.6a2.46,2.46,0,0,0,2.91,1.91,2.24,2.24,0,0,0,.37-.1,2.25,2.25,0,0,1,3,2.41l-.15,1,1.55-.29a2.25,2.25,0,0,1,2.61,1.79,2.29,2.29,0,0,1-.1,1.19l-.44,1.18a2.36,2.36,0,0,1,1.71.76,2.16,2.16,0,0,1,.3,2.55,20.27,20.27,0,0,1-7.17,7.2,16.9,16.9,0,0,1-5.23,2.06,100.45,100.45,0,0,1-36.46,1.1,20.47,20.47,0,0,1,.82,7.38c-.39,3.11-2.22,5.68-4.66,6.54a10.8,10.8,0,0,1-1.7.41,11.24,11.24,0,0,0-1.62.39,4.77,4.77,0,0,0-2.83,6.11,4.89,4.89,0,0,0,1.43,2l1.21-1.26-.39,1.6a2.3,2.3,0,0,1-1.17,1.45A3.23,3.23,0,0,1,360.89,220.67Z" transform="translate(-89.61 0)"/><path class="cls-8" d="M754.18,647.56l1.14-25.72A83.07,83.07,0,0,1,794.07,612c-18.61,15.21-16.28,44.54-28.9,65a50,50,0,0,1-36.64,23.09L713,709.65a83.66,83.66,0,0,1,17.65-67.84A80.44,80.44,0,0,1,745.47,628C749.2,637.83,754.18,647.56,754.18,647.56Z" transform="translate(-89.61 0)"/></svg>