<svg id="Layer_1" data-name="Layer 1" xmlns="http://www.w3.org/2000/svg" viewBox="0 0 682.47 607.54"><defs><style>.cls-1{fill:#2f2e41;}.cls-2{fill:#3f3d56;}.cls-3{fill:#fcad5d;}.cls-4{fill:#fff;}.cls-5{fill:#9e616a;}.cls-6{fill:#ffb8b8;}.cls-7{fill:#e6e6e6;}.cls-8{isolation:isolate;opacity:0.2;}.cls-9{fill:#f5842a;}</style></defs><path class="cls-1" d="M530.67,537.12l9-33.37a111.47,111.47,0,0,1,53.62-1.57c-28.81,14.52-34.3,53.62-56.78,76.75a67.05,67.05,0,0,1-54.73,19.59l-23.18,8a112.4,112.4,0,0,1,42.87-83.76A108.73,108.73,0,0,1,524.94,509C527,522.93,530.67,537.12,530.67,537.12Z" transform="translate(-0.3)"/><path class="cls-1" d="M110.63,489.68,95.47,433.36A188.18,188.18,0,0,0,5,430.71c48.62,24.5,57.89,90.5,95.84,129.54a113.15,113.15,0,0,0,92.36,33.06l39.12,13.44a189.68,189.68,0,0,0-72.35-141.37,183.58,183.58,0,0,0-39.65-23.24C116.87,465.72,110.63,489.68,110.63,489.68Z" transform="translate(-0.3)"/><path class="cls-2" d="M502.24,144.37h0V52.93A52.93,52.93,0,0,0,449.31,0H255.57a52.93,52.93,0,0,0-52.93,52.93V554.61a52.93,52.93,0,0,0,52.93,52.93H449.31a52.93,52.93,0,0,0,52.93-52.93V209.47h0a3.34,3.34,0,0,0,3.33-3.34h0V147.71A3.34,3.34,0,0,0,502.24,144.37Z" transform="translate(-0.3)"/><path class="cls-3" d="M491,53.29v501a39.5,39.5,0,0,1-39.09,39.5,3,3,0,0,1-.43,0H256.77a39.52,39.52,0,0,1-39.52-39.52v-501a39.52,39.52,0,0,1,39.52-39.52h23.62a18.8,18.8,0,0,0,17.39,25.88h111a18.81,18.81,0,0,0,17.37-25.88h25.3A39.52,39.52,0,0,1,491,53.29Z" transform="translate(-0.3)"/><path class="cls-2" d="M203.71,195.53a4.5,4.5,0,0,1-4.5-4.5V160.39a4.51,4.51,0,0,1,9,0V191A4.52,4.52,0,0,1,203.71,195.53Z" transform="translate(-0.3)"/><path class="cls-2" d="M202.81,136.06a4.52,4.52,0,0,1-4.51-4.5V100.92a4.51,4.51,0,0,1,9,0v30.64A4.52,4.52,0,0,1,202.81,136.06Z" transform="translate(-0.3)"/><path class="cls-4" d="M322.65,18.92a4.52,4.52,0,0,1,4.51-4.5h30.63a4.51,4.51,0,1,1,0,9H327.16A4.52,4.52,0,0,1,322.65,18.92Z" transform="translate(-0.3)"/><path class="cls-2" d="M203.71,247.79a4.49,4.49,0,0,1-4.5-4.5V212.65a4.51,4.51,0,0,1,9,0v30.64A4.51,4.51,0,0,1,203.71,247.79Z" transform="translate(-0.3)"/><circle class="cls-4" cx="374.62" cy="18.92" r="4.51"/><polygon class="cls-5" points="332.66 574.34 344.79 574.34 350.56 527.57 332.66 527.57 332.66 574.34"/><path class="cls-1" d="M329.86,570.38h3.42L346.6,565l7.14,5.42h0A15.21,15.21,0,0,1,369,585.6v.49h-39.1Z" transform="translate(-0.3)"/><polygon class="cls-5" points="389 574.34 401.12 574.34 406.89 527.57 388.99 527.57 389 574.34"/><path class="cls-1" d="M386.2,570.38h3.41L402.94,565l7.14,5.42h0A15.22,15.22,0,0,1,425.3,585.6v.49H386.2Z" transform="translate(-0.3)"/><path class="cls-1" d="M399,318.39l-95.27,2.48,1.66,46.4S303.71,379.69,307,383s5,3.31,3.31,9.11,7.1,15.27,6,16.33-3.55,6.87-3.55,6.87l8.29,47.22s5.8,82,7.46,83.67,3.31,0,1.65,4.14-3.31,2.49-1.65,4.14a63.37,63.37,0,0,1,4.14,5h20s1.51-8.28,1.51-9.11,1.65-5.8,1.65-6.63-1.46-2.29-1.46-2.29a26.63,26.63,0,0,1-1-5.16c0-1.66-5-65.45-5-65.45L358.39,388l24,81.18s0,71.25,1.66,72.91,1.66.82.83,4.14-4.14,2.48-1.66,5,3.32-1.66,2.49,2.48l-.83,4.15,24.85.35s3.32-7,1.66-9.47-1.56-1.8.46-5.87,2.85-4.9,2-5.72-.82-5.24-.82-5.24l-4.15-79.27s-.82-83.67-.82-86.15a8.23,8.23,0,0,1,.68-3.73v-3.37l-3.17-12Z" transform="translate(-0.3)"/><circle class="cls-6" cx="324.15" cy="126.32" r="25.68"/><path class="cls-1" d="M312.78,143.79l-1-.83s-2-1.59-3.88-1.31a3,3,0,0,0-2.1,1.4,1.23,1.23,0,0,1-1.25.53c-2.44-.38-6.85-7.61-9.08-14.88-1.37-4.47-3-12.59,1.47-16.91.34-2,3.89-19.61,19.5-20.1,16.06-.51,26.75,2.73,29.33,8.88.44,1,.88,2.27,1.31,3.66a3.74,3.74,0,0,1-1,3.89,3.93,3.93,0,0,1-3.58,1,7,7,0,0,1-.61,2.28c-1.4,3-4.93,5-9,5a20.42,20.42,0,0,1-7-1.35l6.5,5-15.53-1.94,5.09,2.72-1,.49a15.67,15.67,0,0,0-9.11,16.81Z" transform="translate(-0.3)"/><path class="cls-7" d="M394.3,306.11c3.62-6.24.18-15.25.18-15.25s9.34-13.83,7-19.72l-11-85.31s-3.44-9.17-11.47-13.76c-2.2-1.26-13.76-.77-16.3-.75l-8.24-3.52c-.48,1.75-9.46-16.46-9.51-14.65-5.73,0-9.42.79-18.35,2.29-15.49,2.62-7.69,16.61-6.7,18.27a7.79,7.79,0,0,0-1.18.16c-2,.38-8.9,6.33-8.9,6.33l-12.31,10.93C279,205.69,283.17,228.4,283.17,228.4l27,27.22-11.84,54.61s5,8.11,2.43,11.75,22.94,2.59,22.94,2.59c17.63,7.85,79.74,1.21,79.74,1.21C402.62,323.53,394.3,306.11,394.3,306.11Z" transform="translate(-0.3)"/><path class="cls-2" d="M448.11,581.54q0,7.79-.49,15.44a3.1,3.1,0,0,1-.43,0H252.51a39.53,39.53,0,0,1-38.34-29.9,36.51,36.51,0,0,1-.85-4.53,39.43,39.43,0,0,1-.33-5.09V334.23a247,247,0,0,1,44.46,6.28c1.43.33,2.85.68,4.26,1l.27.07c1.43.36,2.85.74,4.26,1.13a246.42,246.42,0,0,1,83.25,41c1.43,1.07,2.85,2.17,4.26,3.28l.27.21q3.54,2.79,7,5.72c.51.43,1,.87,1.52,1.32,1.23,1.06,2.46,2.14,3.66,3.23A248.14,248.14,0,0,1,428,483.56c.47,1.07.92,2.15,1.37,3.23l.54,1.32c.17.4.33.8.49,1.2A247,247,0,0,1,448.11,581.54Z" transform="translate(-0.3)"/><path class="cls-8" d="M358.28,559.34a71.22,71.22,0,0,1,71.21-71.23h.39l-.54-1.32c-.45-1.08-.9-2.16-1.37-3.23H358.28V394.27h4.23c-.5-.45-1-.89-1.52-1.32q-3.44-2.93-7-5.72l-.27-.21v2.7H266.24v-47c-1.41-.39-2.83-.77-4.26-1.13l-.27-.07v48.17H217.25v4.55h44.46v89.29H217.25v4.55h44.46v71.23H217.58a36.51,36.51,0,0,0,.85,4.53h43.28v29.9h4.53v-29.9h87.51v29.9h4.53v-29.9h76.35v-4.53Zm-4.53,0H266.24V488.11h87.51Zm0-75.78H266.24v-1.78a87.51,87.51,0,0,1,87.51-87.51Z" transform="translate(-0.3)"/><path class="cls-5" d="M305.68,366.88a9.25,9.25,0,0,1,.76-13.06,9.43,9.43,0,0,1,1.31-1L296.08,307,312,313.09l8.87,43.31a9.3,9.3,0,0,1-15.22,10.48Z" transform="translate(-0.3)"/><path class="cls-7" d="M284.21,219.68,282.77,238s-1.79,20.13-1.32,23.85,1.34,26.44,1.34,26.44l15.19,30,17.2-4.59-1-14.09,1,12.95,2.3-11.47-5.74-19.5,3.44-6.88-1.73-23.11Z" transform="translate(-0.3)"/><path class="cls-9" d="M679.86,343.27a12.21,12.21,0,0,0-8-4.28,11.85,11.85,0,0,0-1.33-.07l-230.61-.22a12.25,12.25,0,0,0-8.92,3.83,12.77,12.77,0,0,0-3.37,8.82l0,37.46a46.65,46.65,0,0,0,4.31,19.65A52.14,52.14,0,0,1,424,425.31a10.46,10.46,0,0,0,9.28,16.4,70.52,70.52,0,0,0,7.25-.82,49.05,49.05,0,0,0,19.55-7.62,46.88,46.88,0,0,0,14,2.16l162.15.15a46.15,46.15,0,0,0,32.91-13.64,47.48,47.48,0,0,0,13.57-33.57l0-36.77A12.74,12.74,0,0,0,679.86,343.27Z" transform="translate(-0.3)"/><path class="cls-4" d="M619.61,372.7l-128.89-.12a2.81,2.81,0,0,1,0-5.61l128.89.12a2.81,2.81,0,0,1,0,5.61Z" transform="translate(-0.3)"/><path class="cls-4" d="M619.59,389.91l-128.89-.12a2.81,2.81,0,1,1,0-5.61l128.89.12a2.81,2.81,0,0,1,0,5.61Z" transform="translate(-0.3)"/><path class="cls-4" d="M505.71,407l-15,0a2.8,2.8,0,1,1,0-5.6h15a2.81,2.81,0,0,1,0,5.61Z" transform="translate(-0.3)"/><path class="cls-9" d="M3.2,198.27a12.21,12.21,0,0,1,8-4.28,11.85,11.85,0,0,1,1.33-.07l230.61-.22a12.25,12.25,0,0,1,8.92,3.83,12.77,12.77,0,0,1,3.37,8.82l0,37.46a46.65,46.65,0,0,1-4.31,19.65,52.14,52.14,0,0,0,7.86,16.85,10.46,10.46,0,0,1-9.28,16.4,70.52,70.52,0,0,1-7.25-.82A49.05,49.05,0,0,1,223,288.27a46.88,46.88,0,0,1-14,2.16l-162.15.15A46.15,46.15,0,0,1,13.9,276.94,47.48,47.48,0,0,1,.33,243.37l0-36.77A12.8,12.8,0,0,1,3.2,198.27Z" transform="translate(-0.3)"/><path class="cls-4" d="M60.65,224.9a2.8,2.8,0,0,1,2.8-2.81L192.34,222a2.81,2.81,0,0,1,0,5.61l-128.89.12A2.81,2.81,0,0,1,60.65,224.9Z" transform="translate(-0.3)"/><path class="cls-4" d="M60.66,242.11a2.82,2.82,0,0,1,2.8-2.81l128.89-.12a2.81,2.81,0,0,1,0,5.61l-128.89.12A2.81,2.81,0,0,1,60.66,242.11Z" transform="translate(-0.3)"/><path class="cls-4" d="M174.55,259.22a2.8,2.8,0,0,1,2.8-2.81h15a2.8,2.8,0,1,1,0,5.6h0l-15,0A2.81,2.81,0,0,1,174.55,259.22Z" transform="translate(-0.3)"/><path class="cls-5" d="M467.67,111.56a9.82,9.82,0,0,0-4.38,13.19,9.05,9.05,0,0,0,.91,1.48l-19.61,28.91,18.15.23,15.84-27.49a9.88,9.88,0,0,0-10.91-16.32Z" transform="translate(-0.3)"/><path class="cls-7" d="M473.9,138.82l-30.21,55.55-.27,0c-.22,0-9.83.65-21.57,1.28-2,.11-3.14,3.62-5.21,3.73-1.42.07-6.67,6.67-8.11,6.74-12.79.61-20.13,6.45-25,6-6.6-.55-15.39-18.7-20.18-23.27l-.11-.12,0-.16a14.73,14.73,0,0,1,10-15.46,104.28,104.28,0,0,1,47.68-4l9.09,1.36,27.6-37.06Z" transform="translate(-0.3)"/><path class="cls-9" d="M636.86,31.27a12.21,12.21,0,0,0-8-4.28,11.85,11.85,0,0,0-1.33-.07L396.89,26.7A12.25,12.25,0,0,0,388,30.53a12.77,12.77,0,0,0-3.37,8.82l0,37.46a46.65,46.65,0,0,0,4.31,19.65A52.14,52.14,0,0,1,381,113.31a10.46,10.46,0,0,0,9.28,16.4,70.52,70.52,0,0,0,7.25-.82,49.05,49.05,0,0,0,19.55-7.62,46.88,46.88,0,0,0,14,2.16l162.15.15a46.15,46.15,0,0,0,32.91-13.64,47.48,47.48,0,0,0,13.57-33.57l0-36.77A12.74,12.74,0,0,0,636.86,31.27Z" transform="translate(-0.3)"/><path class="cls-4" d="M576.61,60.7l-128.89-.12a2.81,2.81,0,1,1,0-5.61h0l128.89.12a2.81,2.81,0,0,1,0,5.61Z" transform="translate(-0.3)"/><path class="cls-4" d="M576.59,77.91,447.7,77.79a2.81,2.81,0,1,1,0-5.61l128.89.12a2.81,2.81,0,0,1,0,5.61Z" transform="translate(-0.3)"/><path class="cls-4" d="M462.71,95l-15,0a2.8,2.8,0,0,1,0-5.6h15a2.81,2.81,0,0,1,0,5.61Z" transform="translate(-0.3)"/></svg>