<svg id="Layer_1" data-name="Layer 1" xmlns="http://www.w3.org/2000/svg" viewBox="0 0 689.16 554.2"><defs><style>.cls-1{fill:#ffb6b6;}.cls-2{fill:#2f2e41;}.cls-3{fill:#fff;}.cls-4{fill:#ffb8b8;}.cls-5{fill:#e6e6e6;}.cls-6{fill:#f2f2f2;}.cls-7{fill:#3f3d56;}.cls-8{isolation:isolate;opacity:0.2;}.cls-9{fill:#cacaca;}</style></defs><polygon class="cls-1" points="479.89 539.42 467.13 539.42 461.07 490.22 479.89 490.22 479.89 539.42"/><path class="cls-2" d="M479.55,535.26l-13.62-5.54-.39-.16-7.52,5.7a16,16,0,0,0-16,16v.52h41.13V535.26Z" transform="translate(0)"/><polygon class="cls-1" points="595.15 522.84 583.74 528.53 556.36 487.2 573.21 478.8 595.15 522.84"/><path class="cls-2" d="M596.21,517.66l-2.92,1.45-.3.15-14.64,1.13-.44,0-4.19,8.45a16,16,0,0,0-7.19,21.46h0l.23.46,36.81-18.34Z" transform="translate(0)"/><path class="cls-2" d="M471.24,275l70.34,2.46.49-.71s6,14,6,26c0,4-2.78,30.08-1.36,35,.17.61-1,2.12-.64,5,.26,1.85,1.67.43,2,3,.23,1.84-2.26,2.86-2,5,.28,2.33,3.72,9.89,4,12.48,3.28,27.63,7.66,67.65,7.66,67.65s17.59,47.1,21.31,47.87c6.24,1.28,10.46,12.64,7,15-1.65,1.12-23,8.69-23,8.69-1.17.21-4.83-1.63-2.49-6,.43-.8-2.14,1.24-2.56.28s.44-5.07-.08-6.2c-4.66-10.14-11.8-24.2-18.57-31.42a68.53,68.53,0,0,1-18.09-38.76L505.8,334.2l-5.33,24.16-4.4,4.35,1.21,10.15-.21,9.85-11,41s-1.65,76.57,1,79c1.43,1.32,7.52,17.54-4,19l-20.94-1.62s-2.82-5.94-1.41-8.06,1.33-1.54-.39-5-1-9.33-1-9.33a690.57,690.57,0,0,1-3.24-83c1.05-45.5,7.41-97.78,7.41-98.84a7.09,7.09,0,0,0-.59-3.18v-2.87l2.71-10.18Z" transform="translate(0)"/><circle class="cls-3" cx="570.23" cy="255.78" r="27.78"/><path class="cls-3" d="M566.44,270.24A3.1,3.1,0,0,1,564,269l-7.58-10.1a3.09,3.09,0,0,1,4.94-3.72h0l5,6.61L579,242.7a3.09,3.09,0,1,1,5.14,3.43L569,268.86a3.1,3.1,0,0,1-2.49,1.38Z" transform="translate(0)"/><path class="cls-4" d="M584,285.15a8,8,0,0,0-7.31-9.83l-14.23-48.5L552.79,238l15.32,45.41A8,8,0,0,0,584,285.15Z" transform="translate(0)"/><path class="cls-5" d="M573.92,261.49l-1.85-6.78,2.12-4.05-.16-.47-.64-1.82-3.32-2.66,1.19-3.39-4.2-11.93-1-2.07-24.11-48.41-5.78-11.61-1.34-2.1-4.17-6.54-5.7-8.93a12.89,12.89,0,0,0-9.7-5.88l-.39,0a12.35,12.35,0,0,0-2.91.17h0a12.35,12.35,0,0,0-4.74,1.88,12.48,12.48,0,0,0-3,2.68,12.87,12.87,0,0,0-2.85,8.55l.18,4.88.18,4.44,8.46,15.3.55,1v0l26,47.1,7.85,14.2,1.19,2.16,5.28,3.5-1.41,3.52.41,5.48,4.49,3.39,6.51,6.61.26.54,2-1,.19-.1L564,269l6.19-1.87,3.76-1.13.12,0,1-.26Z" transform="translate(0)"/><path class="cls-6" d="M680.93,481.65a15.25,15.25,0,0,0-16.3-5.21l-.64.19L658.25,499c-.86-3.34-2.7-10.88-3.86-18.26l-.1-.61-.57.25a77.72,77.72,0,0,0-16.79,10.12,80.52,80.52,0,0,0-30.11,60.64v.7l.76-.27,16.31-5.83a48.69,48.69,0,0,0,39.26-14.64c6.59-6.95,11.11-15.89,15.48-24.54,1.28-2.52,2.59-5.12,3.93-7.62A15.52,15.52,0,0,0,680.93,481.65Z" transform="translate(0)"/><polygon class="cls-7" points="262.39 109.64 260.39 109.64 260.39 32.6 405.04 32.6 405.04 34.6 262.39 34.6 262.39 109.64"/><circle class="cls-3" cx="427.23" cy="27.78" r="27.78"/><path class="cls-3" d="M423.44,42.24A3.1,3.1,0,0,1,421,41l-7.58-10.1a3.09,3.09,0,1,1,4.94-3.72h0l5,6.61L436,14.7a3.09,3.09,0,1,1,5.15,3.42h0L426,40.86a3.1,3.1,0,0,1-2.49,1.38Z" transform="translate(0)"/><polygon class="cls-7" points="164.39 296.69 162.39 296.69 162.39 373.73 307.04 373.73 307.04 371.73 164.39 371.73 164.39 296.69"/><circle class="cls-3" cx="329.23" cy="373.78" r="27.78"/><path class="cls-3" d="M325.44,388.24A3.1,3.1,0,0,1,323,387l-7.58-10.1a3.09,3.09,0,1,1,4.95-3.71h0l5,6.61L338,360.7a3.09,3.09,0,1,1,5.14,3.43L328,386.86a3.1,3.1,0,0,1-2.49,1.38Z" transform="translate(0)"/><path class="cls-5" d="M549.07,299.52a18.13,18.13,0,0,1-1,6.19l-.15,0c-17.76,3.07-33.6,3.57-40.93-7.33-9.57-12.17-22.72-12-37.39-6.69l-1.74-1.88-3-3.19,2.72-3.08-2.72-5.94,2.27-7.33,2.9-.53-.78-6.31-1.22-3.69,3.58-3.93,3-9.81-2.19-20.53a136.74,136.74,0,0,1,16.62-81.22l8.31-7.46,3.45-3.1,4.63-8.64,4.89.57,13.24,1.53.45,1.08,3.25,7.84,17.12,18.39-.77,7.76-.34,3.42-.25,2.46-1.18,11.84-4.81,48.37-.36,2.57-3.87,27.81c6.29,6.08,11.85,17.79,14.52,28.49.3,1.19-.55,2.4-.33,3.56.31,1.64,1.66,3.2,1.81,4.73A37,37,0,0,1,549.07,299.52Z" transform="translate(0)"/><circle class="cls-1" cx="515.16" cy="98.93" r="23"/><path class="cls-2" d="M542.88,92.65c-1.36-4.24-5.09-7.83-9.52-8.3a15.51,15.51,0,0,0-22.74-15.5,4.83,4.83,0,0,0-4.43-1.69,10,10,0,0,0-4.5,2,22.33,22.33,0,0,0-8.93,21.12c0-2,.89,1.89,3.46,2.24a16.92,16.92,0,0,1,6,2.48,17.55,17.55,0,0,0,6,2.52c2.17.31,2.72,9,1.18,14.56-.29,1-.44,2.47.53,3,1.2.62,2.42-.94,3.76-1.09a2.33,2.33,0,0,1,2.36,2.2,3.78,3.78,0,0,1-1.59,3.09,11.38,11.38,0,0,1-3.23,1.57l.39.55a3.07,3.07,0,0,0,3.62,1.48c1.54,1.85,17.39-3.3,18.16-6.68a37.25,37.25,0,0,0,8.14-10.52A17.88,17.88,0,0,0,542.88,92.65Z" transform="translate(0)"/><path class="cls-5" d="M561.48,162.69c-.32,2.68-2.83,4.68-5.47,5.24a11.84,11.84,0,0,1-4.07.07,28.9,28.9,0,0,1-3.9-.87q-2.37-.67-4.69-1.52a74.39,74.39,0,0,1-12.72-6,75.62,75.62,0,0,1-8.76-6q-2.16-1.71-4.19-3.57l1.69.8-4.53-6.09-4.37-5.88-.19-.24h0l-2-2.67c-2-2.67-4-6.59-1.66-9a4.31,4.31,0,0,1,3.73-1.13,5.94,5.94,0,0,1,2,.66,14.46,14.46,0,0,1,4.35,4.39c1.56-2.27,4.59-3.11,7.33-2.74l.43.05c2.85.49,4.08-1,6.55.46,1.15.7,1.85,4.3,3,5,.65.4,3.06,1,3.72,1.41,1.3.8,1,3.79,2.28,4.59,1,.59,3.57-1,4.54-.41s2.44,4.79,3.46,5.41c2,1.25,3.66-1,5.69.21,2.61,1.61,5.39,3.4,6.49,6.26,1,2.52-.28,6-2.69,6.69A4.46,4.46,0,0,1,561.48,162.69Z" transform="translate(0)"/><path class="cls-8" d="M543.35,165.61l-.25,2.46a33.84,33.84,0,0,1-8.3-1.87,17.52,17.52,0,0,1-8.73-6.49c-1.36-2-2.78-4.07-4.2-6-2.36-3.28-4.7-6.34-6.64-8.83-2.37-3-4.15-5.19-4.76-5.91l-.19-.24,0,0,0,0c11.88,15,23.1,23.71,33.41,23.5C543.69,162.19,544.9,166.17,543.35,165.61Z" transform="translate(0)"/><path class="cls-4" d="M434.61,45.18a8,8,0,0,0,5.74,9.74,9.24,9.24,0,0,0,1.38.23L455,103.91l9.84-11L450.43,47.23a8,8,0,0,0-15.82-2Z" transform="translate(0)"/><path class="cls-5" d="M512.66,169.88l-.09-4.44-8.38-15.89-.31-.58,0,0-6.43-12.18-31-58.83-3.33-1.22.17-4.78-.17-5.22-4-2.69-1.71-3.23-2.42.69h0l-.07,0-10.58,3h0l-2.2,1.24-2,6-.44,2.84.44,5.16,5,1L443.41,86l5,15.22c6.29,26.6,14.88,49.56,29.71,62.67l1.22,2L489,181.68a12.8,12.8,0,0,0,12.89,6h0a12.82,12.82,0,0,0,4.78-1.78,12.61,12.61,0,0,0,3.46-3.17,12.94,12.94,0,0,0,2.59-7.95Z" transform="translate(0)"/><path class="cls-9" d="M688,553.9l-271.75.3A1.19,1.19,0,0,1,415,553a1.2,1.2,0,0,1,1.19-1.19l271.75-.3a1.19,1.19,0,0,1,1.19,1.19A1.2,1.2,0,0,1,688,553.9Z" transform="translate(0)"/><path class="cls-6" d="M83.63,153.71a58.74,58.74,0,0,1,16.05-40.43L64.25,64.53a17.27,17.27,0,0,0-24.12-3.84,17,17,0,0,0-1.94,1.64A126.45,126.45,0,0,0,0,153.28,128.82,128.82,0,0,0,1.43,172.4a17.3,17.3,0,0,0,22.44,14L85,166.49A59.08,59.08,0,0,1,83.63,153.71Z" transform="translate(0)"/><path class="cls-5" d="M86.88,173,23.29,193.69a17.27,17.27,0,0,0-10.19,24A127.51,127.51,0,0,0,108,287.32a17.29,17.29,0,0,0,19.92-17.08V210.85A59.13,59.13,0,0,1,86.88,173Z" transform="translate(0)"/><path class="cls-7" d="M278.11,210.14a19.27,19.27,0,0,0-11.8-10.85L197,176.76a59,59,0,0,1-47.06,35.49v72.26a19.27,19.27,0,0,0,22.17,19A141.92,141.92,0,0,0,277.65,226,19,19,0,0,0,278.11,210.14Z" transform="translate(0)"/><path class="cls-3" d="M260.88,44.39a19.22,19.22,0,0,0-27.19.29,19.63,19.63,0,0,0-1.82,2.16L184.45,112.1a58.79,58.79,0,0,1,17.18,41.61c0,1.44-.07,2.85-.17,4.27l75.37,24.49a19.28,19.28,0,0,0,24.25-12.42,19.63,19.63,0,0,0,.73-3.12,143.11,143.11,0,0,0,1.58-21.29A140.8,140.8,0,0,0,260.88,44.39Z" transform="translate(0)"/><path class="cls-5" d="M142.63,94.71a58.82,58.82,0,0,1,29,7.6l28.94-39.83a17.34,17.34,0,0,0,2.83-14.25A17,17,0,0,0,194.58,37,127.64,127.64,0,0,0,79.2,36.86a17.43,17.43,0,0,0-9.09,11.47,17.18,17.18,0,0,0,2.81,14.16l32.83,45.18A58.72,58.72,0,0,1,142.63,94.71Z" transform="translate(0)"/></svg>